<?xml version="1.0" standalone="no"?>
<!DOCTYPE svg PUBLIC "-//W3C//DTD SVG 20010904//EN"
 "http://www.w3.org/TR/2001/REC-SVG-20010904/DTD/svg10.dtd">
<svg version="1.0" xmlns="http://www.w3.org/2000/svg"
 width="57.000000pt" height="60.000000pt" viewBox="0 0 57.000000 60.000000"
 preserveAspectRatio="xMidYMid meet">

<g transform="translate(0.000000,60.000000) scale(0.100000,-0.100000)"
fill="#000000" stroke="none">
<path d="M59 573 c-13 -14 -19 -23 -13 -20 6 4 11 -11 13 -41 3 -57 19 -85 61
-102 27 -11 33 -11 41 1 13 20 11 29 -5 29 -8 0 -27 5 -43 12 -15 6 -30 11
-33 10 -10 -1 -11 98 0 118 15 27 8 25 -21 -7z"/>
<path d="M486 585 c4 -8 11 -15 16 -15 6 0 5 6 -2 15 -7 8 -14 15 -16 15 -2 0
-1 -7 2 -15z"/>
<path d="M502 530 c0 -14 2 -19 5 -12 2 6 2 18 0 25 -3 6 -5 1 -5 -13z"/>
<path d="M22 515 c-29 -62 -5 -128 50 -139 69 -15 65 -13 41 -21 -13 -4 -23
-11 -23 -16 0 -4 10 -14 23 -20 20 -11 21 -11 8 4 -11 15 -10 18 13 27 35 13
33 30 -4 30 -17 0 -46 6 -65 14 -43 18 -53 53 -32 107 17 43 7 55 -11 14z"/>
<path d="M546 476 c3 -14 3 -33 0 -44 -8 -25 -63 -52 -105 -52 -38 0 -41 -17
-5 -30 23 -9 24 -12 13 -27 -13 -15 -12 -15 9 -4 12 6 22 16 22 20 0 5 -10 12
-22 16 -25 8 -29 6 40 21 38 8 62 40 62 84 0 22 -5 40 -10 40 -6 0 -8 -10 -4
-24z"/>
<path d="M484 468 c-11 -13 -25 -23 -31 -24 -7 -1 -22 -2 -33 -2 -24 -2 -28
-42 -5 -42 41 0 116 63 97 82 -6 6 -16 1 -28 -14z"/>
<path d="M197 433 c-12 -11 -7 -43 6 -43 8 0 8 -3 -2 -9 -11 -7 -7 -13 17 -25
18 -9 34 -26 36 -39 12 -58 13 -77 2 -76 -28 3 -37 -2 -34 -23 2 -12 10 -23
18 -26 12 -4 13 -2 3 9 -23 23 -14 29 42 29 56 0 65 -6 42 -29 -10 -10 -9 -11
6 -6 23 9 22 32 -3 45 -14 7 -20 21 -20 45 0 27 8 40 37 64 21 17 31 31 23 31
-12 0 -12 2 -2 9 8 5 12 17 10 27 -3 17 -14 19 -89 21 -47 2 -89 0 -92 -4z"/>
<path d="M190 346 c0 -2 7 -7 16 -10 8 -3 12 -2 9 4 -6 10 -25 14 -25 6z"/>
<path d="M355 340 c-3 -6 1 -7 9 -4 18 7 21 14 7 14 -6 0 -13 -4 -16 -10z"/>
<path d="M140 235 c-13 -14 -25 -33 -26 -42 -7 -43 73 -140 144 -177 28 -15
32 -14 68 13 22 15 45 35 52 44 12 14 11 16 -5 12 -10 -2 -33 -11 -50 -20 -39
-19 -57 -12 -50 21 5 28 0 30 -25 7 -25 -22 -23 -2 3 31 19 24 19 26 2 26 -28
1 -51 23 -70 69 l-18 42 -25 -26z"/>
<path d="M265 180 c-15 -6 -10 -8 18 -8 20 0 37 1 37 3 0 8 -38 11 -55 5z"/>
</g>
</svg>
